<svg width="290" height="290" viewBox="0 0 290 290" fill="none" xmlns="http://www.w3.org/2000/svg">
<path d="M190 0H100C44.7715 0 0 44.7715 0 100V190C0 245.228 44.7715 290 100 290H190C245.228 290 290 245.228 290 190V100C290 44.7715 245.228 0 190 0Z" fill="url(#paint0_linear_2_2)"/>
<path d="M145.297 226.594C190.196 226.594 226.594 190.196 226.594 145.297C226.594 100.398 190.196 63.9997 145.297 63.9997C100.398 63.9997 63.9997 100.398 63.9997 145.297C63.9997 190.196 100.398 226.594 145.297 226.594Z" fill="url(#paint1_linear_2_2)"/>
<path d="M208.83 134.293C209.394 122.58 201.213 114.809 191.981 109.474L185.979 144.731C190.134 144.499 192.165 146.076 192.904 146.819C193.827 147.746 196.135 150.53 193.365 154.937C199.136 154.009 208.149 148.442 208.83 134.293Z" fill="url(#paint2_linear_2_2)"/>
<path fill-rule="evenodd" clip-rule="evenodd" d="M130.107 93.2458L122.952 86.0553C133.723 84.7409 162.145 86.4264 189.658 103.684C190.12 105.539 189.658 108.323 189.658 108.323L191.967 109.482C193.967 112.343 197.368 120.477 194.967 130.126C192.567 139.775 188.427 143.889 186.658 144.739C182.965 144.739 176.686 146.873 174.655 156.337C172.624 165.8 168.731 167.857 167.038 167.702L126.414 168.166L99.639 152.393L95.715 119.688L103.332 109.482L116.95 98.3487L126.645 94.4056L130.107 93.2458ZM178.086 106.756C176.295 108.622 174.62 109.517 174.142 109.76C163.681 107.535 159.913 102.123 159.913 102.123C169.78 102.062 178.685 104.409 185.2 108.379C185.2 108.379 181.674 107.236 178.086 106.756Z" fill="url(#paint3_linear_2_2)"/>
<path fill-rule="evenodd" clip-rule="evenodd" d="M174.298 156.339C167.127 159.858 158.625 161.896 149.51 161.896C123.887 161.896 103.115 145.799 103.115 125.943C103.115 111.276 114.449 98.6602 130.7 93.0682C99.792 94.8495 74.955 119.679 74.955 150.317C74.955 185.676 106.474 214.893 145.355 214.893C174.388 214.893 198.555 198.06 211.192 175.538C193.804 179.449 173.221 172.014 174.298 156.339Z" fill="url(#paint4_linear_2_2)"/>
<defs>
<linearGradient id="paint0_linear_2_2" x1="290" y1="-5.59936e-05" x2="79.283" y2="-47.3682" gradientUnits="userSpaceOnUse">
<stop stop-color="#0AF0FF"/>
<stop offset="0.458333" stop-color="#01D7FB"/>
<stop offset="1" stop-color="#00C2FF"/>
</linearGradient>
<linearGradient id="paint1_linear_2_2" x1="145.297" y1="75.9977" x2="145.297" y2="235.237" gradientUnits="userSpaceOnUse">
<stop stop-color="white" stop-opacity="0.16"/>
<stop offset="1" stop-color="white" stop-opacity="0"/>
</linearGradient>
<linearGradient id="paint2_linear_2_2" x1="193.382" y1="114.35" x2="216.891" y2="129.822" gradientUnits="userSpaceOnUse">
<stop stop-color="#C2F5FF"/>
<stop offset="1" stop-color="#8EEDFF"/>
</linearGradient>
<linearGradient id="paint3_linear_2_2" x1="102" y1="77" x2="169.771" y2="161.318" gradientUnits="userSpaceOnUse">
<stop stop-color="#C2F5FF"/>
<stop offset="1" stop-color="#F5FDFF"/>
</linearGradient>
<linearGradient id="paint4_linear_2_2" x1="119.035" y1="106.134" x2="182.955" y2="199.612" gradientUnits="userSpaceOnUse">
<stop stop-color="#C2F5FF"/>
<stop offset="1" stop-color="#8EEDFF"/>
</linearGradient>
</defs>
</svg>
